<?xml version="1.0" encoding="UTF-8" standalone="no"?>
<!-- Created with Inkscape (http://www.inkscape.org/) -->

<svg
   xmlns:dc="http://purl.org/dc/elements/1.1/"
   xmlns:cc="http://creativecommons.org/ns#"
   xmlns:rdf="http://www.w3.org/1999/02/22-rdf-syntax-ns#"
   xmlns:svg="http://www.w3.org/2000/svg"
   xmlns="http://www.w3.org/2000/svg"
   xmlns:sodipodi="http://sodipodi.sourceforge.net/DTD/sodipodi-0.dtd"
   xmlns:inkscape="http://www.inkscape.org/namespaces/inkscape"
   width="139.81796mm"
   height="82.285416mm"
   viewBox="0 0 495.41799 291.56248"
   id="svg2"
   version="1.1"
   inkscape:version="0.91 r13725"
   sodipodi:docname="logo.svg">
  <defs
     id="defs4" />
  <sodipodi:namedview
     id="base"
     pagecolor="#ffffff"
     bordercolor="#666666"
     borderopacity="1.0"
     inkscape:pageopacity="0.0"
     inkscape:pageshadow="2"
     inkscape:zoom="0.7"
     inkscape:cx="569.14427"
     inkscape:cy="222.45242"
     inkscape:document-units="px"
     inkscape:current-layer="layer1"
     showgrid="false"
     fit-margin-top="0"
     fit-margin-left="0"
     fit-margin-right="0"
     fit-margin-bottom="0"
     inkscape:window-width="1600"
     inkscape:window-height="849"
     inkscape:window-x="0"
     inkscape:window-y="24"
     inkscape:window-maximized="1" />
  <metadata
     id="metadata7">
    <rdf:RDF>
      <cc:Work
         rdf:about="">
        <dc:format>image/svg+xml</dc:format>
        <dc:type
           rdf:resource="http://purl.org/dc/dcmitype/StillImage" />
        <dc:title></dc:title>
      </cc:Work>
    </rdf:RDF>
  </metadata>
  <g
     inkscape:label="Vrstva 1"
     inkscape:groupmode="layer"
     id="layer1"
     transform="translate(742.20312,5.0038452)">
    <path
       style="opacity:0.25;fill:#000000"
       d="m -697.41992,-5.0039062 c -5.02236,0 -44.67774,39.6573272 -44.67774,44.6796872 0,2.76051 4.18327,7.607101 21.70508,25.150391 11.93794,11.95258 22.26895,21.732422 22.95703,21.732422 1.65119,0 46.90039,-45.22469 46.90039,-46.875 0,-0.70184 -9.77984,-11.044482 -21.73242,-22.982422 -17.54329,-17.52181235 -22.39183,-21.7050783 -25.15234,-21.7050782 z m 101.25976,0 c -2.74942,0 -7.62783,4.20981585 -25.14453,21.7050782 -11.95258,11.93794 -21.73047,22.268951 -21.73047,22.957031 0,0.68808 10.25892,11.522502 22.79883,24.076172 12.53991,12.55366 23.36309,22.824219 24.05078,22.824219 1.6507,0 46.90039,-45.22515 46.90039,-46.875 0,-0.70184 -9.77983,-11.044482 -21.73242,-22.982422 -17.51669,-17.49526235 -22.39316,-21.7050783 -25.14258,-21.7050782 z m 101.25,0 c -2.74943,0 -7.62783,4.20981585 -25.14453,21.7050782 -11.95259,11.93794 -21.73047,22.268951 -21.73047,22.957031 0,0.68808 10.25893,11.522502 22.79883,24.076172 12.53992,12.55366 23.36309,22.824219 24.05078,22.824219 1.6507,0 46.90039,-45.22515 46.90039,-46.875 0,-0.70184 -9.77983,-11.044482 -21.73242,-22.982422 -17.51669,-17.49526235 -22.39315,-21.7050783 -25.14258,-21.7050782 z m 101.25,0 c -2.74943,0 -7.62784,4.20981585 -25.14453,21.7050782 -11.95259,11.93794 -21.73047,22.268951 -21.73047,22.957031 0,0.68808 10.25892,11.522502 22.79883,24.076172 12.53991,12.55366 23.63141,22.824219 24.64844,22.824219 2.41504,0 46.30273,-43.887655 46.30273,-46.302735 0,-1.01743 -9.77983,-11.616747 -21.73242,-23.554687 -17.51669,-17.49526235 -22.39315,-21.7050783 -25.14258,-21.7050782 z m 101.25,0 c -2.74892,-10e-8 -7.62904,4.21101584 -25.14453,21.7050782 -11.95259,11.93794 -21.73047,22.268951 -21.73047,22.957031 0,0.68808 10.25892,11.522502 22.79883,24.076172 12.53991,12.55366 23.61373,22.824219 24.60742,22.824219 0.99368,0 11.54532,-9.681955 23.44922,-21.515625 16.7342,-16.63542 21.64453,-22.238212 21.64453,-24.701172 0,-4.79682 -40.79852,-45.3457032 -45.625,-45.3457032 z m -100.62695,4.71679682 19.37695,19.34570338 c 10.65638,10.63975 19.375,19.92086 19.375,20.625 0,0.70414 -8.58569,9.852075 -19.07812,20.328125 -10.49244,10.47606 -19.35742,19.046875 -19.70117,19.046875 -0.34375,0 -9.47865,-8.865112 -20.29883,-19.701172 l -19.67383,-19.703125 20,-19.970703 20,-19.97070338 z m 101.25,0 19.37695,19.34570338 c 10.6563,10.63975 19.375,19.92086 19.375,20.625 0,0.70414 -8.58562,9.852075 -19.07812,20.328125 -10.4924,10.47606 -19.35742,19.046875 -19.70117,19.046875 -0.34375,0 -9.47865,-8.865112 -20.29883,-19.701172 l -19.67383,-19.703125 20,-19.970703 20,-19.97070338 z m -405.64258,0.5859375 20,19.99999988 20,20 -19.35156,19.378906 c -10.64244,10.65909 -19.92477,19.38086 -20.62891,19.38086 -0.70414,0 -9.98525,-8.71862 -20.625,-19.375 l -19.3457,-19.375 19.97461,-20.00586 19.97656,-20.00390588 z m 101.25,0 20,19.99999988 20,20 -19.35156,19.378906 c -10.64244,10.65909 -19.92477,19.38086 -20.62891,19.38086 -0.70414,0 -9.98526,-8.71862 -20.625,-19.375 l -19.3457,-19.375 19.97461,-20.00586 19.97656,-20.00390588 z m 101.29688,0.009766 19.9707,19.99999988 19.9707,20 -19.34375,19.375 c -10.63974,10.65638 -19.63987,19.375 -20,19.375 -0.36012,0 -9.50794,-8.865112 -20.32812,-19.701172 l -19.67383,-19.703125 19.70313,-19.671875 19.70117,-19.67382788 z m 202.07812,7.68164068 c -1.04713,0.00637 -1.48047,0.9426311 -1.48047,2.6972652 0,2.02158 4.44679,7.271213 14.93164,17.626953 8.2125,8.11135 15.6656,14.503718 16.5625,14.205078 4.529,-1.50805 2.07204,-5.482229 -12.28906,-19.880859 C -285.22985,12.4624 -290.50099,7.9762182 -292.80469,7.9902344 Z m -100.04297,0.029297 c -2.52974,-0.1783665 -7.47985,3.9814882 -17.85742,14.3320312 -13.61939,13.5839 -16.29168,17.329447 -13.99804,19.623047 0.45832,0.45833 1.41834,0.833985 2.13281,0.833985 2.28743,0 32.3457,-30.943536 31.76172,-32.697266 -0.42883,-1.2878343 -1.04917,-2.0220007 -2.03907,-2.0917972 z M -524.48242,36.832031 c -4.57835,1.52452 -2.15952,5.459584 12.25976,19.933594 14.45909,14.51395 18.64833,17.106704 20.16993,12.490234 0.72701,-2.20572 -30.22937,-33.156508 -32.42969,-32.423828 z m -42.05469,0.01758 c -1.60955,-0.53594 -29.33267,25.776035 -31.6582,30.046875 -0.66284,1.21734 -0.86533,2.76421 -0.44922,3.4375 1.88956,3.05737 6.03047,0.214512 19.81445,-13.605468 14.35802,-14.39552 16.81809,-18.372157 12.29297,-19.878907 z m 172.33984,31.753907 c -0.006,0.01575 -0.008,0.03278 -0.0137,0.04883 0.14014,0.03929 0.26774,0.07234 0.40821,0.0957 0.005,-0.0071 0.0106,-0.01908 0.0156,-0.02344 -0.004,-0.0059 -0.0421,-0.02999 -0.41016,-0.121093 z m 1.00391,0.691406 c 2.2e-4,0.01765 -1.7e-4,0.03508 0,0.05273 0.0254,-0.01538 0.0528,-0.02733 0.0781,-0.04297 0.0224,-0.01388 -0.0393,-0.0068 -0.0781,-0.0098 z m -0.9043,0.326172 c -0.0106,0.0028 -0.0208,0.0067 -0.0312,0.0098 0.008,0.01468 0.019,0.02669 0.0274,0.04102 0.004,-0.0098 0.01,-0.01463 0.0137,-0.02344 0.002,-0.0051 0.004,-0.01058 0.006,-0.01563 -0.005,-0.0061 -0.0106,-0.0061 -0.0156,-0.01172 z m 0.01,0.02734 c -0.004,0.0088 -0.006,0.01843 -0.01,0.02734 0.0247,0.04208 0.0508,0.08231 0.0801,0.121094 0.005,-0.0024 0.009,-0.0054 0.0137,-0.0078 0.002,-0.02069 0.004,-0.03766 0.006,-0.05859 -0.0234,-0.02993 -0.062,-0.072 -0.082,-0.0957 -0.002,0.0048 -0.006,0.0086 -0.008,0.01367 z M -697.4375,94.058594 c -1.57073,0 -10.36163,7.871716 -23.63281,21.160156 -18.37731,18.40119 -21.13281,21.67129 -21.13281,25.08984 0,3.41855 2.7555,6.68865 21.13281,25.08985 13.27118,13.28842 22.06208,21.16015 23.63281,21.16015 2.96064,0 46.90234,-43.33049 46.90234,-46.25 0,-2.91951 -43.9417,-46.249996 -46.90234,-46.249996 z m 101.27734,0 c -2.91968,0 -46.875,43.345456 -46.875,46.224606 0,1.03144 9.97786,11.86607 22.17383,24.07618 13.96122,13.97739 23.10154,22.19921 24.67578,22.19921 2.95992,0 46.90039,-43.33114 46.90039,-46.25 0,-2.89672 -43.93914,-46.249996 -46.875,-46.249996 z m 101.25,0 c -2.91968,0 -46.875,43.345456 -46.875,46.224606 0,1.03144 9.97787,11.86606 22.17383,24.07618 13.96122,13.97739 23.10154,22.19921 24.67578,22.19921 2.95992,0 46.90039,-43.33114 46.90039,-46.25 0,-2.89672 -43.93914,-46.249996 -46.875,-46.249996 z m 101.25,0 c -2.91968,0 -46.875,43.345456 -46.875,46.224606 0,1.03144 9.97787,11.86607 22.17383,24.07618 13.96123,13.9774 23.10154,22.19921 24.67578,22.19921 2.95992,0 46.90039,-43.33114 46.90039,-46.25 0,-2.89672 -43.93914,-46.249996 -46.875,-46.249996 z m 101.2168,0 c -2.89329,0 -46.8418,43.393336 -46.8418,46.249996 0,0.94455 9.96253,11.7379 22.14063,23.98438 14.16259,14.2421 23.05595,22.26562 24.67578,22.26562 1.61101,0 10.38232,-7.8406 24.10742,-21.54882 16.4355,-16.41536 21.57617,-22.29303 21.57617,-24.67383 0,-2.3786 -5.14852,-8.28081 -21.54882,-24.70117 -13.873,-13.89 -22.46201,-21.576176 -24.10938,-21.576176 z m -404.9668,7.499996 c 0.70414,0 9.98539,8.71875 20.625,19.375 l 19.34375,19.375 -19.34375,19.375 c -10.63961,10.65625 -19.92086,19.375 -20.625,19.375 -0.70414,0 -9.98539,-8.71875 -20.625,-19.375 l -19.3457,-19.375 19.3457,-19.375 c 10.63961,-10.65625 19.92086,-19.375 20.625,-19.375 z m 101.25,0 c 0.70414,0 9.98539,8.71875 20.625,19.375 l 19.34375,19.375 -19.34375,19.375 c -10.63961,10.65625 -19.92086,19.375 -20.625,19.375 -0.70414,0 -9.98539,-8.71875 -20.625,-19.375 l -19.3457,-19.375 19.3457,-19.375 c 10.63961,-10.65625 19.92086,-19.375 20.625,-19.375 z m 101.25,0 c 0.70414,0 9.98539,8.71875 20.625,19.375 l 19.34375,19.375 -19.34375,19.375 c -10.63961,10.65625 -19.92086,19.375 -20.625,19.375 -0.70414,0 -9.98539,-8.71875 -20.625,-19.375 l -19.3457,-19.375 19.3457,-19.375 c 10.63961,-10.65625 19.92086,-19.375 20.625,-19.375 z m 101.25,0 c 0.70414,0 9.98539,8.71875 20.625,19.375 l 19.34375,19.375 -19.34375,19.375 c -10.63961,10.65625 -19.92086,19.375 -20.625,19.375 -0.70414,0 -9.98539,-8.71875 -20.625,-19.375 l -19.3457,-19.375 19.3457,-19.375 c 10.63961,-10.65625 19.92086,-19.375 20.625,-19.375 z m 101.25,0 c 0.70414,0 9.9854,8.71875 20.625,19.375 l 19.34375,19.375 -19.34375,19.375 c -10.6396,10.65625 -19.92086,19.375 -20.625,19.375 -0.70414,0 -9.98539,-8.71875 -20.625,-19.375 l -19.3457,-19.375 19.3457,-19.375 c 10.63961,-10.65625 19.92086,-19.375 20.625,-19.375 z m 0.97461,6.25 c -0.71149,0 -2.00376,0.85532 -2.87109,1.90039 -1.33845,1.61274 0.75587,4.25955 13.8457,17.5 15.3133,15.48962 19.92578,18.43391 19.92578,12.72071 0,-2.02019 -4.41718,-7.24045 -14.80468,-17.5 -8.1419,-8.04155 -15.38424,-14.6211 -16.09571,-14.6211 z m -101.40234,0.40821 c -4.02689,0.90368 -32.69727,29.13441 -32.69727,32.38476 0,1.26087 0.92813,2.20703 2.16797,2.20703 2.49414,0 32.83203,-29.76019 32.83203,-32.20703 0,-0.89127 -0.89722,-1.96458 -1.99218,-2.38476 -0.0768,-0.0295 -0.18065,-0.0292 -0.31055,0 z m -203.32227,0.21679 c -2.42279,0 -2.51091,0.94531 -2.83593,30.60157 -0.18446,16.83076 -0.0457,31.35611 0.30859,32.27929 0.35426,0.92317 1.63073,1.48992 2.83594,1.25782 2.02002,-0.38901 2.1914,-2.91328 2.1914,-32.28125 0,-31.02454 -0.0654,-31.85743 -2.5,-31.85743 z m 101.25,0 c -2.33044,0 -2.5244,0.95057 -2.85351,14.02149 l -0.35352,14.02148 -14.02148,0.35352 -14.02149,0.35351 0,3.125 0,3.125 14.0625,0.35352 14.0625,0.35351 0,13.5 c 0,7.4254 0.39486,13.89486 0.87696,14.37696 0.4821,0.48208 1.74772,0.70973 2.8125,0.50586 1.58489,-0.30346 1.99807,-2.90997 2.28711,-14.37696 l 0.35351,-14.00586 14.02149,-0.35351 14.02343,-0.35352 0,-3.125 0,-3.125 -14.02343,-0.35351 -14.02149,-0.35352 -0.35351,-14.02148 c -0.32911,-13.07092 -0.52113,-14.02149 -2.85157,-14.02149 z m -218.36328,28.30664 c -12.52763,0.015 -15.08133,0.44342 -15.55273,1.67188 -0.40035,1.04329 -0.40035,2.74968 0,3.79297 0.62853,1.6379 4.95683,1.85125 31.69726,1.5625 l 30.96875,-0.33399 0,-3.125 0,-3.125 -30.96875,-0.33398 c -6.6851,-0.0722 -11.96865,-0.11436 -16.14453,-0.10938 z m 391.19336,1.06836 c -4.86711,0 -1.52684,5.02003 13.08789,19.66993 8.41156,8.4318 16.02279,15.33007 16.91407,15.33007 0.89125,0 1.96459,-0.89527 2.38476,-1.99023 0.94334,-2.45827 -29.03152,-33.00977 -32.38672,-33.00977 z m -41.24219,0.17774 c -2.39057,0.0533 -7.86073,4.77277 -18.38867,15.42187 -13.08979,13.24047 -15.18415,15.88727 -13.8457,17.5 0.86733,1.04508 2.1596,1.90039 2.87109,1.90039 0.71147,0 7.95388,-6.57954 16.09571,-14.62109 10.3875,-10.25955 14.80468,-15.47981 14.80468,-17.5 0,-1.78538 -0.45048,-2.72538 -1.53711,-2.70117 z m -334.08984,56.07226 c -0.70184,0 -11.04253,9.77983 -22.98047,21.73243 -17.49406,17.5155 -21.70508,22.39367 -21.70508,25.14257 0,2.745 4.11447,7.52998 21.08008,24.51758 13.23643,13.2537 22.0096,21.10742 23.58008,21.10742 2.54625,0 46.90234,-43.12401 46.90234,-45.59961 0,-1.6509 -45.22688,-46.90039 -46.87695,-46.90039 z m 101.27734,0 c -1.63414,0 -46.90039,45.21731 -46.90039,46.84961 0,0.6875 9.97786,11.24107 22.17383,23.45118 13.96122,13.97739 23.10154,22.19921 24.67578,22.19921 2.54554,0 46.90039,-43.12461 46.90039,-45.59961 0,-1.6345 -45.21678,-46.90039 -46.84961,-46.90039 z m 101.25,0 c -1.63413,0 -46.90039,45.21731 -46.90039,46.84961 0,0.6875 9.97787,11.24107 22.17383,23.45118 13.96122,13.97739 23.10154,22.19921 24.67578,22.19921 2.54554,0 46.90039,-43.12461 46.90039,-45.59961 0,-1.6345 -45.21678,-46.90039 -46.84961,-46.90039 z m 101.78125,0 c -1.99076,0 -47.43164,44.88331 -47.43164,46.84961 0,0.6875 9.97787,11.24107 22.17383,23.45118 14.11152,14.1279 23.09363,22.19921 24.70117,22.19921 1.60811,0 10.63268,-8.11623 24.83594,-22.33593 17.53968,-17.56 22.14902,-22.84958 21.55078,-24.73438 -1.03025,-3.2461 -43.5857,-45.42969 -45.83008,-45.42969 z m 101.25,0 c -1.99076,0 -47.43164,44.88331 -47.43164,46.84961 0,0.6875 9.97787,11.24107 22.17383,23.45118 13.95914,13.9753 23.10004,22.19921 24.67383,22.19921 1.56896,0 10.53567,-8.02492 24.07617,-21.54882 16.6512,-16.6308 21.57617,-22.27618 21.57617,-24.73438 0,-2.4624 -4.91173,-8.06717 -21.64453,-24.70117 -11.9039,-11.8337 -22.4439,-21.51563 -23.42383,-21.51563 z m -202.42187,6.89453 19.67773,19.67774 19.67774,19.67773 -20.00586,20.00586 -20.00391,20.00391 -19.67773,-19.70703 -19.67969,-19.70703 20.00586,-19.97461 20.00586,-19.97657 z m 101.23828,0.01 19.37695,19.3457 c 10.65638,10.6398 19.375,19.9208 19.375,20.625 0,0.7041 -8.58569,9.85203 -19.07812,20.32813 -10.49244,10.4761 -19.35742,19.04687 -19.70117,19.04687 -0.34375,0 -9.47865,-8.86507 -20.29883,-19.70117 l -19.67383,-19.70312 20,-19.97071 20,-19.9707 z m 101.25,0 19.37695,19.3457 c 10.6563,10.6398 19.375,19.9208 19.375,20.625 0,0.7041 -8.58562,9.85203 -19.07812,20.32813 -10.4924,10.4761 -19.35742,19.04687 -19.70117,19.04687 -0.34375,0 -9.47865,-8.86507 -20.29883,-19.70117 l -19.67383,-19.70312 20,-19.97071 20,-19.9707 z m -405.62305,0.5957 c 0.70414,0 9.98647,8.72186 20.62891,19.38086 l 19.35156,19.37891 -20,20 -20,20 -19.97656,-20.00391 -19.97461,-20.00586 19.3457,-19.375 c 10.63975,-10.6564 19.92086,-19.375 20.625,-19.375 z m 101.25,0 c 0.70414,0 9.98647,8.72186 20.62891,19.38086 l 19.35156,19.37891 -20,20 -20,20 -19.97656,-20.00391 -19.97461,-20.00586 19.3457,-19.375 c 10.63974,-10.6564 19.92086,-19.375 20.625,-19.375 z m -3.125,7.5 0,31.875 0,31.875 2.83204,0 c 3.64056,0 32.16796,-28.2676 32.16796,-31.875 0,-3.6074 -28.52743,-31.875 -32.16796,-31.875 l -2.83204,0 z m 104.375,0 c -3.60741,0 -31.875,28.52747 -31.875,32.16797 l 0,2.83203 31.875,0 31.875,0 0,-2.83203 c 0,-3.6405 -28.26759,-32.16797 -31.875,-32.16797 z m 101.58008,0 c -3.64508,0 -32.20508,28.23264 -32.20508,31.83594 0,1.5234 5.73244,8.24813 14.66797,17.20703 10.10521,10.1316 15.54891,14.70703 17.5,14.70703 l 2.83203,0 0,-31.875 0,-31.875 -2.79492,0 z m 101.00196,0 c -3.41058,0 -31.95704,28.43824 -31.95704,31.83594 0,1.5234 5.73244,8.24813 14.66797,17.20703 9.27615,9.3004 15.61612,14.70703 17.25,14.70703 1.648,0 8.10543,-5.58522 17.83203,-15.42382 8.3867,-8.4832 15.25,-15.88628 15.25,-16.45118 0,-2.3483 -30.60869,-31.875 -33.04296,-31.875 z m -202.63672,7.49805 10.33984,10.28516 c 5.68665,5.6571 10.33984,10.43985 10.33984,10.62695 0,0.187 -9.40971,0.33984 -20.91015,0.33984 l -20.91016,0 10.57031,-10.625 10.57032,-10.62695 z m 202.59961,0 12.16601,12.21094 12.16406,12.21094 -12.21093,12.16601 -12.21094,12.16602 -12.16406,-12.21094 -12.16602,-12.21094 12.21094,-12.16601 12.21094,-12.16602 z m -300.66993,3.18164 10.625,10.57031 10.625,10.57227 -10.28515,10.33789 c -5.6571,5.6867 -10.43795,10.33984 -10.625,10.33984 -0.18706,0 -0.33985,-9.40975 -0.33985,-20.91015 l 0,-20.91016 z m 196.25,0 0,20.91016 c 0,11.5004 -0.15278,20.91015 -0.33984,20.91015 -0.18705,0 -4.96985,-4.65314 -10.62695,-10.33984 l -10.28516,-10.33789 10.625,-10.57227 10.62695,-10.57031 z m -332.5,18.07031 0,2.79297 c 0,1.8974 4.70599,7.512 14.66797,17.5 9.11053,9.1343 15.62996,14.70703 17.20703,14.70703 3.63966,0 31.875,-28.52953 31.875,-32.20703 l 0,-2.79297 -31.875,0 -31.875,0 z m 10.67969,6.25 21.19531,0 21.19336,0 -10.56836,10.625 c -5.81339,5.8437 -10.5946,10.625 -10.625,10.625 -0.0304,0 -4.81161,-4.7813 -10.625,-10.625 l -10.57031,-10.625 z"
       id="path4147"
       inkscape:connector-curvature="0" />
    <g
       id="layer1-6"
       transform="translate(5261.1921,-424.67968)">
      <path
         inkscape:connector-curvature="0"
         style="font-style:normal;font-weight:normal;font-size:40px;line-height:125%;font-family:Sans;letter-spacing:0px;word-spacing:0px;fill:#003e75;fill-opacity:1;stroke:none"
         id="flowRoot2999-4-0-2"
         d="m -5630.3997,440.27821 c -0.1339,37.28806 -2.9082,65.23797 -8.3499,83.67442 -5.465,19.01176 -14.8166,35.28371 -28.0228,48.83174 -11.4985,11.95335 -24.7546,20.86079 -39.7824,26.66733 -15.0278,5.80591 -32.049,8.69945 -51.0614,8.69976 -19.2399,-3.1e-4 -36.4006,-2.89385 -51.5421,-8.69976 -15.0282,-5.80654 -28.2843,-14.71398 -39.7824,-26.66733 -13.2065,-13.66191 -22.6191,-30.05563 -28.1978,-49.18169 -5.3292,-18.65266 -8.0431,-46.48174 -8.1749,-83.32447 l 49.6625,0 0,17.22434 c 0,26.86755 6.6586,47.39279 19.9786,61.50992 13.3198,14.23047 32.6684,21.33357 58.0561,21.33378 25.2738,-2.1e-4 44.5439,-7.042 57.7502,-21.15891 13.206,-14.11712 19.8035,-34.70326 19.8038,-61.68479 l 0,-17.22434 49.6625,0 z" />
      <rect
         style="fill:#d16700;fill-opacity:1;stroke:#d16700;stroke-width:7.01518774;stroke-miterlimit:4;stroke-dasharray:none;stroke-opacity:1"
         id="rect3858-3"
         transform="matrix(0,-1,1,0,0,0)"
         y="-5880.1816"
         x="-684.05377"
         height="247.87694"
         width="49.825272" />
      <path
         inkscape:connector-curvature="0"
         id="path4146"
         d=""
         style="fill:#000000" />
    </g>
  </g>
</svg>
